<?xml version="1.0" encoding="utf-8"?>
<!-- Svg Vector Icons : http://www.onlinewebfonts.com/icon -->
<!DOCTYPE svg PUBLIC "-//W3C//DTD SVG 1.1//EN" "http://www.w3.org/Graphics/SVG/1.1/DTD/svg11.dtd">
<svg version="1.1" xmlns="http://www.w3.org/2000/svg" xmlns:xlink="http://www.w3.org/1999/xlink" x="0px" y="0px" viewBox="0 0 1000 1000" enable-background="new 0 0 1000 1000" xml:space="preserve">
<metadata> Svg Vector Icons : http://www.onlinewebfonts.com/icon </metadata>
<g><g transform="matrix(1 0 0 -1 0 800)"><path d="M912.6,770.5c36.1-19.3,59.9-49.3,71.3-90.3c11.4-40.9,6.9-79.4-13.5-115.5L594.9-112.2c-24.1-43.3-60.8-68.6-110.1-75.8l-21.7-1.8c-40.9,0-76.4,15-106.5,45.1L55.1,155C25,185,10,220.5,10,261.5S25,337.9,55.1,368c30.1,30.1,65.6,45.1,106.5,45.1c40.9,0,76.4-15,106.5-45.1l160.7-158.8l278,501.8c19.3,36.1,49.3,60.2,90.3,72.2C837.9,795.2,876.4,791,912.6,770.5z"/></g></g>
</svg>